<svg width="42" height="76" viewBox="0 0 42 76" fill="none" xmlns="http://www.w3.org/2000/svg">
<g clip-path="url(#clip0_2_194)">
<path d="M23.0914 30.0451C31.0563 30.0451 37.5131 23.6178 37.5131 15.6892C37.5131 7.76069 31.0563 1.33334 23.0914 1.33334C15.1265 1.33334 8.66968 7.76069 8.66968 15.6892C8.66968 23.6178 15.1265 30.0451 23.0914 30.0451Z" fill="#3A3A3C" stroke="#3A3A3C" stroke-miterlimit="10"/>
<path d="M34.7936 25.3333H11.3792C9.88111 25.3333 8.66663 26.5423 8.66663 28.0336V29.5879C8.66663 31.0792 9.88111 32.2882 11.3792 32.2882H34.7936C36.2918 32.2882 37.5062 31.0792 37.5062 29.5879V28.0336C37.5062 26.5423 36.2918 25.3333 34.7936 25.3333Z" fill="#3A3A3C" stroke="#3A3A3C" stroke-miterlimit="10"/>
<path d="M35.0178 34H11.1551C9.78075 34 8.66663 35.109 8.66663 36.4771V36.4809C8.66663 37.849 9.78075 38.958 11.1551 38.958H35.0178C36.3921 38.958 37.5062 37.849 37.5062 36.4809V36.4771C37.5062 35.109 36.3921 34 35.0178 34Z" fill="#3A3A3C" stroke="#3A3A3C" stroke-miterlimit="10"/>
<path d="M13.0806 36.4457C11.9864 42.6025 10.5199 49.251 8.54815 56.2739C7.15385 61.2357 5.64558 65.8911 4.08791 70.2327C3.74218 71.2084 3.23309 73.0918 4.1601 74.3927C5.17828 75.8185 7.4274 75.8071 8.84449 75.8071C13.1604 75.7958 17.5978 75.7958 22.5216 75.7693C22.5861 62.7068 22.6545 49.6481 22.7191 36.5856C19.505 36.5364 16.2947 36.4911 13.0806 36.4419V36.4457Z" fill="#3A3A3C" stroke="#3A3A3C" stroke-miterlimit="10"/>
<path d="M32.3577 36.4457C33.4518 42.6025 34.9183 49.251 36.8901 56.2739C38.2844 61.2357 39.7927 65.8911 41.3503 70.2327C41.696 71.2084 42.2051 73.0918 41.2781 74.3927C40.26 75.8185 38.0108 75.8071 36.5937 75.8071C32.2779 75.7958 27.8404 75.7958 22.9167 75.7693C22.8521 62.7068 22.7837 49.6481 22.7191 36.5856C25.9332 36.5364 29.1435 36.4911 32.3577 36.4419V36.4457Z" fill="#3A3A3C" stroke="#3A3A3C" stroke-miterlimit="10"/>
</g>
<defs>
<clipPath id="clip0_2_194">
<rect width="42" height="76" fill="white"/>
</clipPath>
</defs>
</svg>
