<svg width="74" height="95" viewBox="0 0 74 95" fill="none" xmlns="http://www.w3.org/2000/svg">
<g clip-path="url(#clip0_2_108)">
<path d="M39.8257 49.6368C50.456 49.6368 59.0735 41.6392 59.0735 31.7737C59.0735 21.9081 50.456 13.9106 39.8257 13.9106C29.1954 13.9106 20.5779 21.9081 20.5779 31.7737C20.5779 41.6392 29.1954 49.6368 39.8257 49.6368Z" fill="#3A3A3C" stroke="#3A3A3C" stroke-miterlimit="10"/>
<path d="M73.8151 50.6765C73.7524 51.3598 73.3319 55.1327 70.2154 57.3122C68.2501 58.6847 66.1326 58.7849 64.8502 58.8438C63.7498 58.8938 61.8441 58.9822 60.0129 58.0957C56.9322 56.6024 54.77 52.694 55.2263 49.2804C55.793 45.0333 60.2992 42.3885 64.8502 39.7142C65.906 39.0957 66.8216 38.6362 67.4657 38.3299C68.4559 39.2135 69.8039 40.586 71.0385 42.5122C72.4879 44.7712 74.1222 47.3159 73.8151 50.6765Z" fill="#3A3A3C" stroke="#3A3A3C" stroke-miterlimit="10"/>
<path d="M28.6898 35.582C27.3567 37.4022 28.3706 40.86 30.1332 42.848C31.2635 44.1263 31.9434 43.817 35.5341 45.5312C39.8555 47.5929 39.2919 48.1731 41.5584 48.8682C45.173 49.9756 46.0677 48.338 50.6694 49.3777C53.1626 49.9403 54.8595 50.8622 56.1717 51.5749C58.316 52.7412 59.8996 53.6278 60.6959 55.4038C61.3401 56.8411 60.8718 57.6216 61.3908 57.9397C63.4903 59.2209 73.2603 53.9989 73.2693 47.7696C73.2693 47.1599 73.1768 46.1909 70.4928 41.8673C67.3673 36.8308 65.9268 35.6174 62.5777 30.8342C59.6819 26.6932 56.4946 22.5625 55.301 21.375C52.8883 18.415 49.6822 16.3476 47.344 15.4375C44.7661 14.6305 46.3033 14.594 44.2723 15.0417C37.079 16.6292 33.5092 32.03 29.3429 34.9488C29.2624 35.0048 28.9611 35.2109 28.6868 35.585L28.6898 35.582Z" fill="#3A3A3C" stroke="#3A3A3C" stroke-miterlimit="10"/>
<path d="M33.1632 3.2781C34.1623 4.76841 38.5314 11.2804 35.8622 16.9913C35.4089 17.9633 34.1832 20.128 30.9832 21.8186C30.4225 20.1045 29.838 17.8749 29.498 15.2271C29.3429 14.0166 29.1431 11.9902 29.2206 9.48085C29.2892 7.18354 29.6054 3.98791 30.682 0.282745C31.347 0.939543 32.2626 1.93505 33.1603 3.2781H33.1632Z" fill="#3A3A3C" stroke="#3A3A3C" stroke-miterlimit="10"/>
<path d="M45.7695 7.45745C47.204 11.9195 46.196 16.5584 43.1451 19.3093C40.9561 21.2855 38.3644 21.7067 37.1715 21.8157C37.431 19.2386 38.1288 15.4716 40.1091 11.3423C41.5615 8.31452 43.2733 5.98775 44.7048 4.32661C45.0597 5.36924 45.4146 6.41187 45.7695 7.4545V7.45745Z" fill="#3A3A3C" stroke="#3A3A3C" stroke-miterlimit="10"/>
<path d="M35.8413 14.9502C31.0368 16.0105 16.7188 19.8424 7.70922 32.9194C6.25386 35.0312 0.471163 43.652 0.16995 55.2859C-0.0596879 64.1747 1.76847 67.4852 2.51404 74.0915C3.00612 78.4564 3.027 80.7007 2.75859 82.7977C2.00407 88.647 -0.441423 92.6261 1.30024 94.2578C1.9981 94.9116 3.02402 94.8645 3.48329 94.8468C7.77185 94.676 22.1973 94.6024 41.9938 94.4905C43.0824 94.5229 44.6272 94.5346 46.4822 94.4463C48.376 94.355 49.3243 94.3079 49.6942 94.0987C50.225 93.7954 51.8593 92.5289 50.0043 81.4252C48.9903 75.3609 48.4863 72.3302 47.0011 69.1169C45.7426 66.3954 43.2464 62.7551 41.0156 59.0912C37.8663 53.9192 37.4011 53.3685 37.416 51.9341C37.4398 49.5838 38.7163 48.8416 39.3276 46.453C40.4043 42.2677 38.0453 38.4889 37.0014 36.3889C35.051 32.454 33.5509 25.9862 35.8383 14.9532L35.8413 14.9502Z" fill="#3A3A3C" stroke="#3A3A3C" stroke-miterlimit="10"/>
<path d="M44.7875 30.3228C44.1593 30.0833 43.5883 30.0833 43.2456 30.0833C42.8002 30.0833 42.4347 30.1432 42.172 30.2031C43.0286 30.5424 43.9538 30.9316 44.9017 31.3906C45.6327 31.7498 46.318 32.1091 46.9462 32.4583C46.8206 32.1989 46.615 31.8197 46.2723 31.4205C45.9868 31.0912 45.5642 30.6122 44.7989 30.3228H44.7875Z" fill="#E5E5E5" stroke="#C5C5C5" stroke-miterlimit="10"/>
</g>
<defs>
<clipPath id="clip0_2_108">
<rect width="74" height="95" fill="white"/>
</clipPath>
</defs>
</svg>
